<?xml version="1.0" encoding="utf-8" standalone="no"?>
<!DOCTYPE svg PUBLIC "-//W3C//DTD SVG 1.1//EN"
  "http://www.w3.org/Graphics/SVG/1.1/DTD/svg11.dtd">
<svg xmlns:xlink="http://www.w3.org/1999/xlink" width="864pt" height="432pt" viewBox="0 0 864 432" xmlns="http://www.w3.org/2000/svg" version="1.1">
 <metadata>
  <rdf:RDF xmlns:dc="http://purl.org/dc/elements/1.1/" xmlns:cc="http://creativecommons.org/ns#" xmlns:rdf="http://www.w3.org/1999/02/22-rdf-syntax-ns#">
   <cc:Work>
    <dc:type rdf:resource="http://purl.org/dc/dcmitype/StillImage"/>
    <dc:date>2025-02-26T20:57:02.171966</dc:date>
    <dc:format>image/svg+xml</dc:format>
    <dc:creator>
     <cc:Agent>
      <dc:title>Matplotlib v3.9.2, https://matplotlib.org/</dc:title>
     </cc:Agent>
    </dc:creator>
   </cc:Work>
  </rdf:RDF>
 </metadata>
 <defs>
  <style type="text/css">*{stroke-linejoin: round; stroke-linecap: butt}</style>
 </defs>
 <g id="figure_1">
  <g id="patch_1">
   <path d="M 0 432 
L 864 432 
L 864 0 
L 0 0 
z
" style="fill: #ffffff"/>
  </g>
  <g id="axes_1">
   <g id="patch_2">
    <path d="M 54.65 375.837127 
L 842.858563 375.837127 
L 842.858563 29.76 
L 54.65 29.76 
z
" style="fill: #ffffff"/>
   </g>
   <g id="matplotlib.axis_1">
    <g id="xtick_1">
     <g id="line2d_1">
      <path d="M 54.65 375.837127 
L 54.65 29.76 
" clip-path="url(#pe0ad935460)" style="fill: none; stroke-dasharray: 2.96,1.28; stroke-dashoffset: 0; stroke: #b0b0b0; stroke-opacity: 0.6; stroke-width: 0.8"/>
     </g>
     <g id="line2d_2">
      <defs>
       <path id="m3218e2f6b2" d="M 0 0 
L 0 3.5 
" style="stroke: #000000; stroke-width: 0.8"/>
      </defs>
      <g>
       <use xlink:href="#m3218e2f6b2" x="54.65" y="375.837127" style="stroke: #000000; stroke-width: 0.8"/>
      </g>
     </g>
     <g id="text_1">
      <!-- 1 -->
      <g transform="translate(54.351689 392.709) rotate(-45) scale(0.1 -0.1)">
       <defs>
        <path id="DejaVuSans-31" d="M 794 531 
L 1825 531 
L 1825 4091 
L 703 3866 
L 703 4441 
L 1819 4666 
L 2450 4666 
L 2450 531 
L 3481 531 
L 3481 0 
L 794 0 
L 794 531 
z
" transform="scale(0.015625)"/>
       </defs>
       <use xlink:href="#DejaVuSans-31"/>
      </g>
     </g>
    </g>
    <g id="xtick_2">
     <g id="line2d_3">
      <path d="M 142.562952 375.837127 
L 142.562952 29.76 
" clip-path="url(#pe0ad935460)" style="fill: none; stroke-dasharray: 2.96,1.28; stroke-dashoffset: 0; stroke: #b0b0b0; stroke-opacity: 0.6; stroke-width: 0.8"/>
     </g>
     <g id="line2d_4">
      <g>
       <use xlink:href="#m3218e2f6b2" x="142.562952" y="375.837127" style="stroke: #000000; stroke-width: 0.8"/>
      </g>
     </g>
     <g id="text_2">
      <!-- 2 -->
      <g transform="translate(142.264641 392.709) rotate(-45) scale(0.1 -0.1)">
       <defs>
        <path id="DejaVuSans-32" d="M 1228 531 
L 3431 531 
L 3431 0 
L 469 0 
L 469 531 
Q 828 903 1448 1529 
Q 2069 2156 2228 2338 
Q 2531 2678 2651 2914 
Q 2772 3150 2772 3378 
Q 2772 3750 2511 3984 
Q 2250 4219 1831 4219 
Q 1534 4219 1204 4116 
Q 875 4013 500 3803 
L 500 4441 
Q 881 4594 1212 4672 
Q 1544 4750 1819 4750 
Q 2544 4750 2975 4387 
Q 3406 4025 3406 3419 
Q 3406 3131 3298 2873 
Q 3191 2616 2906 2266 
Q 2828 2175 2409 1742 
Q 1991 1309 1228 531 
z
" transform="scale(0.015625)"/>
       </defs>
       <use xlink:href="#DejaVuSans-32"/>
      </g>
     </g>
    </g>
    <g id="xtick_3">
     <g id="line2d_5">
      <path d="M 230.475904 375.837127 
L 230.475904 29.76 
" clip-path="url(#pe0ad935460)" style="fill: none; stroke-dasharray: 2.96,1.28; stroke-dashoffset: 0; stroke: #b0b0b0; stroke-opacity: 0.6; stroke-width: 0.8"/>
     </g>
     <g id="line2d_6">
      <g>
       <use xlink:href="#m3218e2f6b2" x="230.475904" y="375.837127" style="stroke: #000000; stroke-width: 0.8"/>
      </g>
     </g>
     <g id="text_3">
      <!-- 4 -->
      <g transform="translate(230.177593 392.709) rotate(-45) scale(0.1 -0.1)">
       <defs>
        <path id="DejaVuSans-34" d="M 2419 4116 
L 825 1625 
L 2419 1625 
L 2419 4116 
z
M 2253 4666 
L 3047 4666 
L 3047 1625 
L 3713 1625 
L 3713 1100 
L 3047 1100 
L 3047 0 
L 2419 0 
L 2419 1100 
L 313 1100 
L 313 1709 
L 2253 4666 
z
" transform="scale(0.015625)"/>
       </defs>
       <use xlink:href="#DejaVuSans-34"/>
      </g>
     </g>
    </g>
    <g id="xtick_4">
     <g id="line2d_7">
      <path d="M 318.388856 375.837127 
L 318.388856 29.76 
" clip-path="url(#pe0ad935460)" style="fill: none; stroke-dasharray: 2.96,1.28; stroke-dashoffset: 0; stroke: #b0b0b0; stroke-opacity: 0.6; stroke-width: 0.8"/>
     </g>
     <g id="line2d_8">
      <g>
       <use xlink:href="#m3218e2f6b2" x="318.388856" y="375.837127" style="stroke: #000000; stroke-width: 0.8"/>
      </g>
     </g>
     <g id="text_4">
      <!-- 8 -->
      <g transform="translate(318.090545 392.709) rotate(-45) scale(0.1 -0.1)">
       <defs>
        <path id="DejaVuSans-38" d="M 2034 2216 
Q 1584 2216 1326 1975 
Q 1069 1734 1069 1313 
Q 1069 891 1326 650 
Q 1584 409 2034 409 
Q 2484 409 2743 651 
Q 3003 894 3003 1313 
Q 3003 1734 2745 1975 
Q 2488 2216 2034 2216 
z
M 1403 2484 
Q 997 2584 770 2862 
Q 544 3141 544 3541 
Q 544 4100 942 4425 
Q 1341 4750 2034 4750 
Q 2731 4750 3128 4425 
Q 3525 4100 3525 3541 
Q 3525 3141 3298 2862 
Q 3072 2584 2669 2484 
Q 3125 2378 3379 2068 
Q 3634 1759 3634 1313 
Q 3634 634 3220 271 
Q 2806 -91 2034 -91 
Q 1263 -91 848 271 
Q 434 634 434 1313 
Q 434 1759 690 2068 
Q 947 2378 1403 2484 
z
M 1172 3481 
Q 1172 3119 1398 2916 
Q 1625 2713 2034 2713 
Q 2441 2713 2670 2916 
Q 2900 3119 2900 3481 
Q 2900 3844 2670 4047 
Q 2441 4250 2034 4250 
Q 1625 4250 1398 4047 
Q 1172 3844 1172 3481 
z
" transform="scale(0.015625)"/>
       </defs>
       <use xlink:href="#DejaVuSans-38"/>
      </g>
     </g>
    </g>
    <g id="xtick_5">
     <g id="line2d_9">
      <path d="M 406.301808 375.837127 
L 406.301808 29.76 
" clip-path="url(#pe0ad935460)" style="fill: none; stroke-dasharray: 2.96,1.28; stroke-dashoffset: 0; stroke: #b0b0b0; stroke-opacity: 0.6; stroke-width: 0.8"/>
     </g>
     <g id="line2d_10">
      <g>
       <use xlink:href="#m3218e2f6b2" x="406.301808" y="375.837127" style="stroke: #000000; stroke-width: 0.8"/>
      </g>
     </g>
     <g id="text_5">
      <!-- 16 -->
      <g transform="translate(403.754014 397.207967) rotate(-45) scale(0.1 -0.1)">
       <defs>
        <path id="DejaVuSans-36" d="M 2113 2584 
Q 1688 2584 1439 2293 
Q 1191 2003 1191 1497 
Q 1191 994 1439 701 
Q 1688 409 2113 409 
Q 2538 409 2786 701 
Q 3034 994 3034 1497 
Q 3034 2003 2786 2293 
Q 2538 2584 2113 2584 
z
M 3366 4563 
L 3366 3988 
Q 3128 4100 2886 4159 
Q 2644 4219 2406 4219 
Q 1781 4219 1451 3797 
Q 1122 3375 1075 2522 
Q 1259 2794 1537 2939 
Q 1816 3084 2150 3084 
Q 2853 3084 3261 2657 
Q 3669 2231 3669 1497 
Q 3669 778 3244 343 
Q 2819 -91 2113 -91 
Q 1303 -91 875 529 
Q 447 1150 447 2328 
Q 447 3434 972 4092 
Q 1497 4750 2381 4750 
Q 2619 4750 2861 4703 
Q 3103 4656 3366 4563 
z
" transform="scale(0.015625)"/>
       </defs>
       <use xlink:href="#DejaVuSans-31"/>
       <use xlink:href="#DejaVuSans-36" x="63.623047"/>
      </g>
     </g>
    </g>
    <g id="xtick_6">
     <g id="line2d_11">
      <path d="M 494.21476 375.837127 
L 494.21476 29.76 
" clip-path="url(#pe0ad935460)" style="fill: none; stroke-dasharray: 2.96,1.28; stroke-dashoffset: 0; stroke: #b0b0b0; stroke-opacity: 0.6; stroke-width: 0.8"/>
     </g>
     <g id="line2d_12">
      <g>
       <use xlink:href="#m3218e2f6b2" x="494.21476" y="375.837127" style="stroke: #000000; stroke-width: 0.8"/>
      </g>
     </g>
     <g id="text_6">
      <!-- 32 -->
      <g transform="translate(491.666966 397.207967) rotate(-45) scale(0.1 -0.1)">
       <defs>
        <path id="DejaVuSans-33" d="M 2597 2516 
Q 3050 2419 3304 2112 
Q 3559 1806 3559 1356 
Q 3559 666 3084 287 
Q 2609 -91 1734 -91 
Q 1441 -91 1130 -33 
Q 819 25 488 141 
L 488 750 
Q 750 597 1062 519 
Q 1375 441 1716 441 
Q 2309 441 2620 675 
Q 2931 909 2931 1356 
Q 2931 1769 2642 2001 
Q 2353 2234 1838 2234 
L 1294 2234 
L 1294 2753 
L 1863 2753 
Q 2328 2753 2575 2939 
Q 2822 3125 2822 3475 
Q 2822 3834 2567 4026 
Q 2313 4219 1838 4219 
Q 1578 4219 1281 4162 
Q 984 4106 628 3988 
L 628 4550 
Q 988 4650 1302 4700 
Q 1616 4750 1894 4750 
Q 2613 4750 3031 4423 
Q 3450 4097 3450 3541 
Q 3450 3153 3228 2886 
Q 3006 2619 2597 2516 
z
" transform="scale(0.015625)"/>
       </defs>
       <use xlink:href="#DejaVuSans-33"/>
       <use xlink:href="#DejaVuSans-32" x="63.623047"/>
      </g>
     </g>
    </g>
    <g id="xtick_7">
     <g id="line2d_13">
      <path d="M 580.130323 375.837127 
L 580.130323 29.76 
" clip-path="url(#pe0ad935460)" style="fill: none; stroke-dasharray: 2.96,1.28; stroke-dashoffset: 0; stroke: #b0b0b0; stroke-opacity: 0.6; stroke-width: 0.8"/>
     </g>
     <g id="line2d_14">
      <g>
       <use xlink:href="#m3218e2f6b2" x="580.130323" y="375.837127" style="stroke: #000000; stroke-width: 0.8"/>
      </g>
     </g>
     <g id="text_7">
      <!-- 63 -->
      <g transform="translate(577.582529 397.207967) rotate(-45) scale(0.1 -0.1)">
       <use xlink:href="#DejaVuSans-36"/>
       <use xlink:href="#DejaVuSans-33" x="63.623047"/>
      </g>
     </g>
    </g>
    <g id="xtick_8">
     <g id="line2d_15">
      <path d="M 668.043275 375.837127 
L 668.043275 29.76 
" clip-path="url(#pe0ad935460)" style="fill: none; stroke-dasharray: 2.96,1.28; stroke-dashoffset: 0; stroke: #b0b0b0; stroke-opacity: 0.6; stroke-width: 0.8"/>
     </g>
     <g id="line2d_16">
      <g>
       <use xlink:href="#m3218e2f6b2" x="668.043275" y="375.837127" style="stroke: #000000; stroke-width: 0.8"/>
      </g>
     </g>
     <g id="text_8">
      <!-- 126 -->
      <g transform="translate(663.245997 401.706934) rotate(-45) scale(0.1 -0.1)">
       <use xlink:href="#DejaVuSans-31"/>
       <use xlink:href="#DejaVuSans-32" x="63.623047"/>
       <use xlink:href="#DejaVuSans-36" x="127.246094"/>
      </g>
     </g>
    </g>
    <g id="xtick_9">
     <g id="line2d_17">
      <path d="M 755.451926 375.837127 
L 755.451926 29.76 
" clip-path="url(#pe0ad935460)" style="fill: none; stroke-dasharray: 2.96,1.28; stroke-dashoffset: 0; stroke: #b0b0b0; stroke-opacity: 0.6; stroke-width: 0.8"/>
     </g>
     <g id="line2d_18">
      <g>
       <use xlink:href="#m3218e2f6b2" x="755.451926" y="375.837127" style="stroke: #000000; stroke-width: 0.8"/>
      </g>
     </g>
     <g id="text_9">
      <!-- 251 -->
      <g transform="translate(750.654648 401.706934) rotate(-45) scale(0.1 -0.1)">
       <defs>
        <path id="DejaVuSans-35" d="M 691 4666 
L 3169 4666 
L 3169 4134 
L 1269 4134 
L 1269 2991 
Q 1406 3038 1543 3061 
Q 1681 3084 1819 3084 
Q 2600 3084 3056 2656 
Q 3513 2228 3513 1497 
Q 3513 744 3044 326 
Q 2575 -91 1722 -91 
Q 1428 -91 1123 -41 
Q 819 9 494 109 
L 494 744 
Q 775 591 1075 516 
Q 1375 441 1709 441 
Q 2250 441 2565 725 
Q 2881 1009 2881 1497 
Q 2881 1984 2565 2268 
Q 2250 2553 1709 2553 
Q 1456 2553 1204 2497 
Q 953 2441 691 2322 
L 691 4666 
z
" transform="scale(0.015625)"/>
       </defs>
       <use xlink:href="#DejaVuSans-32"/>
       <use xlink:href="#DejaVuSans-35" x="63.623047"/>
       <use xlink:href="#DejaVuSans-31" x="127.246094"/>
      </g>
     </g>
    </g>
    <g id="xtick_10">
     <g id="line2d_19">
      <path d="M 842.858563 375.837127 
L 842.858563 29.76 
" clip-path="url(#pe0ad935460)" style="fill: none; stroke-dasharray: 2.96,1.28; stroke-dashoffset: 0; stroke: #b0b0b0; stroke-opacity: 0.6; stroke-width: 0.8"/>
     </g>
     <g id="line2d_20">
      <g>
       <use xlink:href="#m3218e2f6b2" x="842.858563" y="375.837127" style="stroke: #000000; stroke-width: 0.8"/>
      </g>
     </g>
     <g id="text_10">
      <!-- 500 -->
      <g transform="translate(838.061286 401.706934) rotate(-45) scale(0.1 -0.1)">
       <defs>
        <path id="DejaVuSans-30" d="M 2034 4250 
Q 1547 4250 1301 3770 
Q 1056 3291 1056 2328 
Q 1056 1369 1301 889 
Q 1547 409 2034 409 
Q 2525 409 2770 889 
Q 3016 1369 3016 2328 
Q 3016 3291 2770 3770 
Q 2525 4250 2034 4250 
z
M 2034 4750 
Q 2819 4750 3233 4129 
Q 3647 3509 3647 2328 
Q 3647 1150 3233 529 
Q 2819 -91 2034 -91 
Q 1250 -91 836 529 
Q 422 1150 422 2328 
Q 422 3509 836 4129 
Q 1250 4750 2034 4750 
z
" transform="scale(0.015625)"/>
       </defs>
       <use xlink:href="#DejaVuSans-35"/>
       <use xlink:href="#DejaVuSans-30" x="63.623047"/>
       <use xlink:href="#DejaVuSans-30" x="127.246094"/>
      </g>
     </g>
    </g>
    <g id="xtick_11">
     <g id="line2d_21">
      <path d="M 193.988732 375.837127 
L 193.988732 29.76 
" clip-path="url(#pe0ad935460)" style="fill: none; stroke-dasharray: 2.96,1.28; stroke-dashoffset: 0; stroke: #b0b0b0; stroke-opacity: 0.6; stroke-width: 0.8"/>
     </g>
     <g id="line2d_22">
      <defs>
       <path id="md96c9ff379" d="M 0 0 
L 0 2 
" style="stroke: #000000; stroke-width: 0.6"/>
      </defs>
      <g>
       <use xlink:href="#md96c9ff379" x="193.988732" y="375.837127" style="stroke: #000000; stroke-width: 0.6"/>
      </g>
     </g>
    </g>
    <g id="xtick_12">
     <g id="line2d_23">
      <path d="M 258.777553 375.837127 
L 258.777553 29.76 
" clip-path="url(#pe0ad935460)" style="fill: none; stroke-dasharray: 2.96,1.28; stroke-dashoffset: 0; stroke: #b0b0b0; stroke-opacity: 0.6; stroke-width: 0.8"/>
     </g>
     <g id="line2d_24">
      <g>
       <use xlink:href="#md96c9ff379" x="258.777553" y="375.837127" style="stroke: #000000; stroke-width: 0.6"/>
      </g>
     </g>
    </g>
    <g id="xtick_13">
     <g id="line2d_25">
      <path d="M 281.901684 375.837127 
L 281.901684 29.76 
" clip-path="url(#pe0ad935460)" style="fill: none; stroke-dasharray: 2.96,1.28; stroke-dashoffset: 0; stroke: #b0b0b0; stroke-opacity: 0.6; stroke-width: 0.8"/>
     </g>
     <g id="line2d_26">
      <g>
       <use xlink:href="#md96c9ff379" x="281.901684" y="375.837127" style="stroke: #000000; stroke-width: 0.6"/>
      </g>
     </g>
    </g>
    <g id="xtick_14">
     <g id="line2d_27">
      <path d="M 301.452858 375.837127 
L 301.452858 29.76 
" clip-path="url(#pe0ad935460)" style="fill: none; stroke-dasharray: 2.96,1.28; stroke-dashoffset: 0; stroke: #b0b0b0; stroke-opacity: 0.6; stroke-width: 0.8"/>
     </g>
     <g id="line2d_28">
      <g>
       <use xlink:href="#md96c9ff379" x="301.452858" y="375.837127" style="stroke: #000000; stroke-width: 0.6"/>
      </g>
     </g>
    </g>
    <g id="xtick_15">
     <g id="line2d_29">
      <path d="M 333.327464 375.837127 
L 333.327464 29.76 
" clip-path="url(#pe0ad935460)" style="fill: none; stroke-dasharray: 2.96,1.28; stroke-dashoffset: 0; stroke: #b0b0b0; stroke-opacity: 0.6; stroke-width: 0.8"/>
     </g>
     <g id="line2d_30">
      <g>
       <use xlink:href="#md96c9ff379" x="333.327464" y="375.837127" style="stroke: #000000; stroke-width: 0.6"/>
      </g>
     </g>
    </g>
    <g id="xtick_16">
     <g id="line2d_31">
      <path d="M 434.603457 375.837127 
L 434.603457 29.76 
" clip-path="url(#pe0ad935460)" style="fill: none; stroke-dasharray: 2.96,1.28; stroke-dashoffset: 0; stroke: #b0b0b0; stroke-opacity: 0.6; stroke-width: 0.8"/>
     </g>
     <g id="line2d_32">
      <g>
       <use xlink:href="#md96c9ff379" x="434.603457" y="375.837127" style="stroke: #000000; stroke-width: 0.6"/>
      </g>
     </g>
    </g>
    <g id="xtick_17">
     <g id="line2d_33">
      <path d="M 486.029237 375.837127 
L 486.029237 29.76 
" clip-path="url(#pe0ad935460)" style="fill: none; stroke-dasharray: 2.96,1.28; stroke-dashoffset: 0; stroke: #b0b0b0; stroke-opacity: 0.6; stroke-width: 0.8"/>
     </g>
     <g id="line2d_34">
      <g>
       <use xlink:href="#md96c9ff379" x="486.029237" y="375.837127" style="stroke: #000000; stroke-width: 0.6"/>
      </g>
     </g>
    </g>
    <g id="xtick_18">
     <g id="line2d_35">
      <path d="M 522.516409 375.837127 
L 522.516409 29.76 
" clip-path="url(#pe0ad935460)" style="fill: none; stroke-dasharray: 2.96,1.28; stroke-dashoffset: 0; stroke: #b0b0b0; stroke-opacity: 0.6; stroke-width: 0.8"/>
     </g>
     <g id="line2d_36">
      <g>
       <use xlink:href="#md96c9ff379" x="522.516409" y="375.837127" style="stroke: #000000; stroke-width: 0.6"/>
      </g>
     </g>
    </g>
    <g id="xtick_19">
     <g id="line2d_37">
      <path d="M 550.818058 375.837127 
L 550.818058 29.76 
" clip-path="url(#pe0ad935460)" style="fill: none; stroke-dasharray: 2.96,1.28; stroke-dashoffset: 0; stroke: #b0b0b0; stroke-opacity: 0.6; stroke-width: 0.8"/>
     </g>
     <g id="line2d_38">
      <g>
       <use xlink:href="#md96c9ff379" x="550.818058" y="375.837127" style="stroke: #000000; stroke-width: 0.6"/>
      </g>
     </g>
    </g>
    <g id="xtick_20">
     <g id="line2d_39">
      <path d="M 573.942189 375.837127 
L 573.942189 29.76 
" clip-path="url(#pe0ad935460)" style="fill: none; stroke-dasharray: 2.96,1.28; stroke-dashoffset: 0; stroke: #b0b0b0; stroke-opacity: 0.6; stroke-width: 0.8"/>
     </g>
     <g id="line2d_40">
      <g>
       <use xlink:href="#md96c9ff379" x="573.942189" y="375.837127" style="stroke: #000000; stroke-width: 0.6"/>
      </g>
     </g>
    </g>
    <g id="xtick_21">
     <g id="line2d_41">
      <path d="M 593.493364 375.837127 
L 593.493364 29.76 
" clip-path="url(#pe0ad935460)" style="fill: none; stroke-dasharray: 2.96,1.28; stroke-dashoffset: 0; stroke: #b0b0b0; stroke-opacity: 0.6; stroke-width: 0.8"/>
     </g>
     <g id="line2d_42">
      <g>
       <use xlink:href="#md96c9ff379" x="593.493364" y="375.837127" style="stroke: #000000; stroke-width: 0.6"/>
      </g>
     </g>
    </g>
    <g id="xtick_22">
     <g id="line2d_43">
      <path d="M 610.429361 375.837127 
L 610.429361 29.76 
" clip-path="url(#pe0ad935460)" style="fill: none; stroke-dasharray: 2.96,1.28; stroke-dashoffset: 0; stroke: #b0b0b0; stroke-opacity: 0.6; stroke-width: 0.8"/>
     </g>
     <g id="line2d_44">
      <g>
       <use xlink:href="#md96c9ff379" x="610.429361" y="375.837127" style="stroke: #000000; stroke-width: 0.6"/>
      </g>
     </g>
    </g>
    <g id="xtick_23">
     <g id="line2d_45">
      <path d="M 625.36797 375.837127 
L 625.36797 29.76 
" clip-path="url(#pe0ad935460)" style="fill: none; stroke-dasharray: 2.96,1.28; stroke-dashoffset: 0; stroke: #b0b0b0; stroke-opacity: 0.6; stroke-width: 0.8"/>
     </g>
     <g id="line2d_46">
      <g>
       <use xlink:href="#md96c9ff379" x="625.36797" y="375.837127" style="stroke: #000000; stroke-width: 0.6"/>
      </g>
     </g>
    </g>
    <g id="xtick_24">
     <g id="line2d_47">
      <path d="M 726.643962 375.837127 
L 726.643962 29.76 
" clip-path="url(#pe0ad935460)" style="fill: none; stroke-dasharray: 2.96,1.28; stroke-dashoffset: 0; stroke: #b0b0b0; stroke-opacity: 0.6; stroke-width: 0.8"/>
     </g>
     <g id="line2d_48">
      <g>
       <use xlink:href="#md96c9ff379" x="726.643962" y="375.837127" style="stroke: #000000; stroke-width: 0.6"/>
      </g>
     </g>
    </g>
    <g id="xtick_25">
     <g id="line2d_49">
      <path d="M 778.069742 375.837127 
L 778.069742 29.76 
" clip-path="url(#pe0ad935460)" style="fill: none; stroke-dasharray: 2.96,1.28; stroke-dashoffset: 0; stroke: #b0b0b0; stroke-opacity: 0.6; stroke-width: 0.8"/>
     </g>
     <g id="line2d_50">
      <g>
       <use xlink:href="#md96c9ff379" x="778.069742" y="375.837127" style="stroke: #000000; stroke-width: 0.6"/>
      </g>
     </g>
    </g>
    <g id="xtick_26">
     <g id="line2d_51">
      <path d="M 814.556914 375.837127 
L 814.556914 29.76 
" clip-path="url(#pe0ad935460)" style="fill: none; stroke-dasharray: 2.96,1.28; stroke-dashoffset: 0; stroke: #b0b0b0; stroke-opacity: 0.6; stroke-width: 0.8"/>
     </g>
     <g id="line2d_52">
      <g>
       <use xlink:href="#md96c9ff379" x="814.556914" y="375.837127" style="stroke: #000000; stroke-width: 0.6"/>
      </g>
     </g>
    </g>
    <g id="text_11">
     <!-- Iteration (Log Scale) -->
     <g transform="translate(377.811469 417.815308) scale(0.14 -0.14)">
      <defs>
       <path id="DejaVuSans-49" d="M 628 4666 
L 1259 4666 
L 1259 0 
L 628 0 
L 628 4666 
z
" transform="scale(0.015625)"/>
       <path id="DejaVuSans-74" d="M 1172 4494 
L 1172 3500 
L 2356 3500 
L 2356 3053 
L 1172 3053 
L 1172 1153 
Q 1172 725 1289 603 
Q 1406 481 1766 481 
L 2356 481 
L 2356 0 
L 1766 0 
Q 1100 0 847 248 
Q 594 497 594 1153 
L 594 3053 
L 172 3053 
L 172 3500 
L 594 3500 
L 594 4494 
L 1172 4494 
z
" transform="scale(0.015625)"/>
       <path id="DejaVuSans-65" d="M 3597 1894 
L 3597 1613 
L 953 1613 
Q 991 1019 1311 708 
Q 1631 397 2203 397 
Q 2534 397 2845 478 
Q 3156 559 3463 722 
L 3463 178 
Q 3153 47 2828 -22 
Q 2503 -91 2169 -91 
Q 1331 -91 842 396 
Q 353 884 353 1716 
Q 353 2575 817 3079 
Q 1281 3584 2069 3584 
Q 2775 3584 3186 3129 
Q 3597 2675 3597 1894 
z
M 3022 2063 
Q 3016 2534 2758 2815 
Q 2500 3097 2075 3097 
Q 1594 3097 1305 2825 
Q 1016 2553 972 2059 
L 3022 2063 
z
" transform="scale(0.015625)"/>
       <path id="DejaVuSans-72" d="M 2631 2963 
Q 2534 3019 2420 3045 
Q 2306 3072 2169 3072 
Q 1681 3072 1420 2755 
Q 1159 2438 1159 1844 
L 1159 0 
L 581 0 
L 581 3500 
L 1159 3500 
L 1159 2956 
Q 1341 3275 1631 3429 
Q 1922 3584 2338 3584 
Q 2397 3584 2469 3576 
Q 2541 3569 2628 3553 
L 2631 2963 
z
" transform="scale(0.015625)"/>
       <path id="DejaVuSans-61" d="M 2194 1759 
Q 1497 1759 1228 1600 
Q 959 1441 959 1056 
Q 959 750 1161 570 
Q 1363 391 1709 391 
Q 2188 391 2477 730 
Q 2766 1069 2766 1631 
L 2766 1759 
L 2194 1759 
z
M 3341 1997 
L 3341 0 
L 2766 0 
L 2766 531 
Q 2569 213 2275 61 
Q 1981 -91 1556 -91 
Q 1019 -91 701 211 
Q 384 513 384 1019 
Q 384 1609 779 1909 
Q 1175 2209 1959 2209 
L 2766 2209 
L 2766 2266 
Q 2766 2663 2505 2880 
Q 2244 3097 1772 3097 
Q 1472 3097 1187 3025 
Q 903 2953 641 2809 
L 641 3341 
Q 956 3463 1253 3523 
Q 1550 3584 1831 3584 
Q 2591 3584 2966 3190 
Q 3341 2797 3341 1997 
z
" transform="scale(0.015625)"/>
       <path id="DejaVuSans-69" d="M 603 3500 
L 1178 3500 
L 1178 0 
L 603 0 
L 603 3500 
z
M 603 4863 
L 1178 4863 
L 1178 4134 
L 603 4134 
L 603 4863 
z
" transform="scale(0.015625)"/>
       <path id="DejaVuSans-6f" d="M 1959 3097 
Q 1497 3097 1228 2736 
Q 959 2375 959 1747 
Q 959 1119 1226 758 
Q 1494 397 1959 397 
Q 2419 397 2687 759 
Q 2956 1122 2956 1747 
Q 2956 2369 2687 2733 
Q 2419 3097 1959 3097 
z
M 1959 3584 
Q 2709 3584 3137 3096 
Q 3566 2609 3566 1747 
Q 3566 888 3137 398 
Q 2709 -91 1959 -91 
Q 1206 -91 779 398 
Q 353 888 353 1747 
Q 353 2609 779 3096 
Q 1206 3584 1959 3584 
z
" transform="scale(0.015625)"/>
       <path id="DejaVuSans-6e" d="M 3513 2113 
L 3513 0 
L 2938 0 
L 2938 2094 
Q 2938 2591 2744 2837 
Q 2550 3084 2163 3084 
Q 1697 3084 1428 2787 
Q 1159 2491 1159 1978 
L 1159 0 
L 581 0 
L 581 3500 
L 1159 3500 
L 1159 2956 
Q 1366 3272 1645 3428 
Q 1925 3584 2291 3584 
Q 2894 3584 3203 3211 
Q 3513 2838 3513 2113 
z
" transform="scale(0.015625)"/>
       <path id="DejaVuSans-20" transform="scale(0.015625)"/>
       <path id="DejaVuSans-28" d="M 1984 4856 
Q 1566 4138 1362 3434 
Q 1159 2731 1159 2009 
Q 1159 1288 1364 580 
Q 1569 -128 1984 -844 
L 1484 -844 
Q 1016 -109 783 600 
Q 550 1309 550 2009 
Q 550 2706 781 3412 
Q 1013 4119 1484 4856 
L 1984 4856 
z
" transform="scale(0.015625)"/>
       <path id="DejaVuSans-4c" d="M 628 4666 
L 1259 4666 
L 1259 531 
L 3531 531 
L 3531 0 
L 628 0 
L 628 4666 
z
" transform="scale(0.015625)"/>
       <path id="DejaVuSans-67" d="M 2906 1791 
Q 2906 2416 2648 2759 
Q 2391 3103 1925 3103 
Q 1463 3103 1205 2759 
Q 947 2416 947 1791 
Q 947 1169 1205 825 
Q 1463 481 1925 481 
Q 2391 481 2648 825 
Q 2906 1169 2906 1791 
z
M 3481 434 
Q 3481 -459 3084 -895 
Q 2688 -1331 1869 -1331 
Q 1566 -1331 1297 -1286 
Q 1028 -1241 775 -1147 
L 775 -588 
Q 1028 -725 1275 -790 
Q 1522 -856 1778 -856 
Q 2344 -856 2625 -561 
Q 2906 -266 2906 331 
L 2906 616 
Q 2728 306 2450 153 
Q 2172 0 1784 0 
Q 1141 0 747 490 
Q 353 981 353 1791 
Q 353 2603 747 3093 
Q 1141 3584 1784 3584 
Q 2172 3584 2450 3431 
Q 2728 3278 2906 2969 
L 2906 3500 
L 3481 3500 
L 3481 434 
z
" transform="scale(0.015625)"/>
       <path id="DejaVuSans-53" d="M 3425 4513 
L 3425 3897 
Q 3066 4069 2747 4153 
Q 2428 4238 2131 4238 
Q 1616 4238 1336 4038 
Q 1056 3838 1056 3469 
Q 1056 3159 1242 3001 
Q 1428 2844 1947 2747 
L 2328 2669 
Q 3034 2534 3370 2195 
Q 3706 1856 3706 1288 
Q 3706 609 3251 259 
Q 2797 -91 1919 -91 
Q 1588 -91 1214 -16 
Q 841 59 441 206 
L 441 856 
Q 825 641 1194 531 
Q 1563 422 1919 422 
Q 2459 422 2753 634 
Q 3047 847 3047 1241 
Q 3047 1584 2836 1778 
Q 2625 1972 2144 2069 
L 1759 2144 
Q 1053 2284 737 2584 
Q 422 2884 422 3419 
Q 422 4038 858 4394 
Q 1294 4750 2059 4750 
Q 2388 4750 2728 4690 
Q 3069 4631 3425 4513 
z
" transform="scale(0.015625)"/>
       <path id="DejaVuSans-63" d="M 3122 3366 
L 3122 2828 
Q 2878 2963 2633 3030 
Q 2388 3097 2138 3097 
Q 1578 3097 1268 2742 
Q 959 2388 959 1747 
Q 959 1106 1268 751 
Q 1578 397 2138 397 
Q 2388 397 2633 464 
Q 2878 531 3122 666 
L 3122 134 
Q 2881 22 2623 -34 
Q 2366 -91 2075 -91 
Q 1284 -91 818 406 
Q 353 903 353 1747 
Q 353 2603 823 3093 
Q 1294 3584 2113 3584 
Q 2378 3584 2631 3529 
Q 2884 3475 3122 3366 
z
" transform="scale(0.015625)"/>
       <path id="DejaVuSans-6c" d="M 603 4863 
L 1178 4863 
L 1178 0 
L 603 0 
L 603 4863 
z
" transform="scale(0.015625)"/>
       <path id="DejaVuSans-29" d="M 513 4856 
L 1013 4856 
Q 1481 4119 1714 3412 
Q 1947 2706 1947 2009 
Q 1947 1309 1714 600 
Q 1481 -109 1013 -844 
L 513 -844 
Q 928 -128 1133 580 
Q 1338 1288 1338 2009 
Q 1338 2731 1133 3434 
Q 928 4138 513 4856 
z
" transform="scale(0.015625)"/>
      </defs>
      <use xlink:href="#DejaVuSans-49"/>
      <use xlink:href="#DejaVuSans-74" x="29.492188"/>
      <use xlink:href="#DejaVuSans-65" x="68.701172"/>
      <use xlink:href="#DejaVuSans-72" x="130.224609"/>
      <use xlink:href="#DejaVuSans-61" x="171.337891"/>
      <use xlink:href="#DejaVuSans-74" x="232.617188"/>
      <use xlink:href="#DejaVuSans-69" x="271.826172"/>
      <use xlink:href="#DejaVuSans-6f" x="299.609375"/>
      <use xlink:href="#DejaVuSans-6e" x="360.791016"/>
      <use xlink:href="#DejaVuSans-20" x="424.169922"/>
      <use xlink:href="#DejaVuSans-28" x="455.957031"/>
      <use xlink:href="#DejaVuSans-4c" x="494.970703"/>
      <use xlink:href="#DejaVuSans-6f" x="548.933594"/>
      <use xlink:href="#DejaVuSans-67" x="610.115234"/>
      <use xlink:href="#DejaVuSans-20" x="673.591797"/>
      <use xlink:href="#DejaVuSans-53" x="705.378906"/>
      <use xlink:href="#DejaVuSans-63" x="768.855469"/>
      <use xlink:href="#DejaVuSans-61" x="823.835938"/>
      <use xlink:href="#DejaVuSans-6c" x="885.115234"/>
      <use xlink:href="#DejaVuSans-65" x="912.898438"/>
      <use xlink:href="#DejaVuSans-29" x="974.421875"/>
     </g>
    </g>
   </g>
   <g id="matplotlib.axis_2">
    <g id="ytick_1">
     <g id="line2d_53">
      <path d="M 54.65 365.537212 
L 842.858563 365.537212 
" clip-path="url(#pe0ad935460)" style="fill: none; stroke-dasharray: 2.96,1.28; stroke-dashoffset: 0; stroke: #b0b0b0; stroke-opacity: 0.6; stroke-width: 0.8"/>
     </g>
     <g id="line2d_54">
      <defs>
       <path id="mcc8f029646" d="M 0 0 
L -3.5 0 
" style="stroke: #000000; stroke-width: 0.8"/>
      </defs>
      <g>
       <use xlink:href="#mcc8f029646" x="54.65" y="365.537212" style="stroke: #000000; stroke-width: 0.8"/>
      </g>
     </g>
     <g id="text_12">
      <!-- 0 -->
      <g transform="translate(41.2875 369.336431) scale(0.1 -0.1)">
       <use xlink:href="#DejaVuSans-30"/>
      </g>
     </g>
    </g>
    <g id="ytick_2">
     <g id="line2d_55">
      <path d="M 54.65 324.337554 
L 842.858563 324.337554 
" clip-path="url(#pe0ad935460)" style="fill: none; stroke-dasharray: 2.96,1.28; stroke-dashoffset: 0; stroke: #b0b0b0; stroke-opacity: 0.6; stroke-width: 0.8"/>
     </g>
     <g id="line2d_56">
      <g>
       <use xlink:href="#mcc8f029646" x="54.65" y="324.337554" style="stroke: #000000; stroke-width: 0.8"/>
      </g>
     </g>
     <g id="text_13">
      <!-- 20 -->
      <g transform="translate(34.925 328.136773) scale(0.1 -0.1)">
       <use xlink:href="#DejaVuSans-32"/>
       <use xlink:href="#DejaVuSans-30" x="63.623047"/>
      </g>
     </g>
    </g>
    <g id="ytick_3">
     <g id="line2d_57">
      <path d="M 54.65 283.137896 
L 842.858563 283.137896 
" clip-path="url(#pe0ad935460)" style="fill: none; stroke-dasharray: 2.96,1.28; stroke-dashoffset: 0; stroke: #b0b0b0; stroke-opacity: 0.6; stroke-width: 0.8"/>
     </g>
     <g id="line2d_58">
      <g>
       <use xlink:href="#mcc8f029646" x="54.65" y="283.137896" style="stroke: #000000; stroke-width: 0.8"/>
      </g>
     </g>
     <g id="text_14">
      <!-- 40 -->
      <g transform="translate(34.925 286.937115) scale(0.1 -0.1)">
       <use xlink:href="#DejaVuSans-34"/>
       <use xlink:href="#DejaVuSans-30" x="63.623047"/>
      </g>
     </g>
    </g>
    <g id="ytick_4">
     <g id="line2d_59">
      <path d="M 54.65 241.938238 
L 842.858563 241.938238 
" clip-path="url(#pe0ad935460)" style="fill: none; stroke-dasharray: 2.96,1.28; stroke-dashoffset: 0; stroke: #b0b0b0; stroke-opacity: 0.6; stroke-width: 0.8"/>
     </g>
     <g id="line2d_60">
      <g>
       <use xlink:href="#mcc8f029646" x="54.65" y="241.938238" style="stroke: #000000; stroke-width: 0.8"/>
      </g>
     </g>
     <g id="text_15">
      <!-- 60 -->
      <g transform="translate(34.925 245.737457) scale(0.1 -0.1)">
       <use xlink:href="#DejaVuSans-36"/>
       <use xlink:href="#DejaVuSans-30" x="63.623047"/>
      </g>
     </g>
    </g>
    <g id="ytick_5">
     <g id="line2d_61">
      <path d="M 54.65 200.73858 
L 842.858563 200.73858 
" clip-path="url(#pe0ad935460)" style="fill: none; stroke-dasharray: 2.96,1.28; stroke-dashoffset: 0; stroke: #b0b0b0; stroke-opacity: 0.6; stroke-width: 0.8"/>
     </g>
     <g id="line2d_62">
      <g>
       <use xlink:href="#mcc8f029646" x="54.65" y="200.73858" style="stroke: #000000; stroke-width: 0.8"/>
      </g>
     </g>
     <g id="text_16">
      <!-- 80 -->
      <g transform="translate(34.925 204.537799) scale(0.1 -0.1)">
       <use xlink:href="#DejaVuSans-38"/>
       <use xlink:href="#DejaVuSans-30" x="63.623047"/>
      </g>
     </g>
    </g>
    <g id="ytick_6">
     <g id="line2d_63">
      <path d="M 54.65 159.538922 
L 842.858563 159.538922 
" clip-path="url(#pe0ad935460)" style="fill: none; stroke-dasharray: 2.96,1.28; stroke-dashoffset: 0; stroke: #b0b0b0; stroke-opacity: 0.6; stroke-width: 0.8"/>
     </g>
     <g id="line2d_64">
      <g>
       <use xlink:href="#mcc8f029646" x="54.65" y="159.538922" style="stroke: #000000; stroke-width: 0.8"/>
      </g>
     </g>
     <g id="text_17">
      <!-- 100 -->
      <g transform="translate(28.5625 163.338141) scale(0.1 -0.1)">
       <use xlink:href="#DejaVuSans-31"/>
       <use xlink:href="#DejaVuSans-30" x="63.623047"/>
       <use xlink:href="#DejaVuSans-30" x="127.246094"/>
      </g>
     </g>
    </g>
    <g id="ytick_7">
     <g id="line2d_65">
      <path d="M 54.65 118.339265 
L 842.858563 118.339265 
" clip-path="url(#pe0ad935460)" style="fill: none; stroke-dasharray: 2.96,1.28; stroke-dashoffset: 0; stroke: #b0b0b0; stroke-opacity: 0.6; stroke-width: 0.8"/>
     </g>
     <g id="line2d_66">
      <g>
       <use xlink:href="#mcc8f029646" x="54.65" y="118.339265" style="stroke: #000000; stroke-width: 0.8"/>
      </g>
     </g>
     <g id="text_18">
      <!-- 120 -->
      <g transform="translate(28.5625 122.138483) scale(0.1 -0.1)">
       <use xlink:href="#DejaVuSans-31"/>
       <use xlink:href="#DejaVuSans-32" x="63.623047"/>
       <use xlink:href="#DejaVuSans-30" x="127.246094"/>
      </g>
     </g>
    </g>
    <g id="ytick_8">
     <g id="line2d_67">
      <path d="M 54.65 77.139607 
L 842.858563 77.139607 
" clip-path="url(#pe0ad935460)" style="fill: none; stroke-dasharray: 2.96,1.28; stroke-dashoffset: 0; stroke: #b0b0b0; stroke-opacity: 0.6; stroke-width: 0.8"/>
     </g>
     <g id="line2d_68">
      <g>
       <use xlink:href="#mcc8f029646" x="54.65" y="77.139607" style="stroke: #000000; stroke-width: 0.8"/>
      </g>
     </g>
     <g id="text_19">
      <!-- 140 -->
      <g transform="translate(28.5625 80.938825) scale(0.1 -0.1)">
       <use xlink:href="#DejaVuSans-31"/>
       <use xlink:href="#DejaVuSans-34" x="63.623047"/>
       <use xlink:href="#DejaVuSans-30" x="127.246094"/>
      </g>
     </g>
    </g>
    <g id="ytick_9">
     <g id="line2d_69">
      <path d="M 54.65 35.939949 
L 842.858563 35.939949 
" clip-path="url(#pe0ad935460)" style="fill: none; stroke-dasharray: 2.96,1.28; stroke-dashoffset: 0; stroke: #b0b0b0; stroke-opacity: 0.6; stroke-width: 0.8"/>
     </g>
     <g id="line2d_70">
      <g>
       <use xlink:href="#mcc8f029646" x="54.65" y="35.939949" style="stroke: #000000; stroke-width: 0.8"/>
      </g>
     </g>
     <g id="text_20">
      <!-- 160 -->
      <g transform="translate(28.5625 39.739167) scale(0.1 -0.1)">
       <use xlink:href="#DejaVuSans-31"/>
       <use xlink:href="#DejaVuSans-36" x="63.623047"/>
       <use xlink:href="#DejaVuSans-30" x="127.246094"/>
      </g>
     </g>
    </g>
    <g id="text_21">
     <!-- Hard Conflicts -->
     <g transform="translate(21.650937 251.976845) rotate(-90) scale(0.14 -0.14)">
      <defs>
       <path id="DejaVuSans-48" d="M 628 4666 
L 1259 4666 
L 1259 2753 
L 3553 2753 
L 3553 4666 
L 4184 4666 
L 4184 0 
L 3553 0 
L 3553 2222 
L 1259 2222 
L 1259 0 
L 628 0 
L 628 4666 
z
" transform="scale(0.015625)"/>
       <path id="DejaVuSans-64" d="M 2906 2969 
L 2906 4863 
L 3481 4863 
L 3481 0 
L 2906 0 
L 2906 525 
Q 2725 213 2448 61 
Q 2172 -91 1784 -91 
Q 1150 -91 751 415 
Q 353 922 353 1747 
Q 353 2572 751 3078 
Q 1150 3584 1784 3584 
Q 2172 3584 2448 3432 
Q 2725 3281 2906 2969 
z
M 947 1747 
Q 947 1113 1208 752 
Q 1469 391 1925 391 
Q 2381 391 2643 752 
Q 2906 1113 2906 1747 
Q 2906 2381 2643 2742 
Q 2381 3103 1925 3103 
Q 1469 3103 1208 2742 
Q 947 2381 947 1747 
z
" transform="scale(0.015625)"/>
       <path id="DejaVuSans-43" d="M 4122 4306 
L 4122 3641 
Q 3803 3938 3442 4084 
Q 3081 4231 2675 4231 
Q 1875 4231 1450 3742 
Q 1025 3253 1025 2328 
Q 1025 1406 1450 917 
Q 1875 428 2675 428 
Q 3081 428 3442 575 
Q 3803 722 4122 1019 
L 4122 359 
Q 3791 134 3420 21 
Q 3050 -91 2638 -91 
Q 1578 -91 968 557 
Q 359 1206 359 2328 
Q 359 3453 968 4101 
Q 1578 4750 2638 4750 
Q 3056 4750 3426 4639 
Q 3797 4528 4122 4306 
z
" transform="scale(0.015625)"/>
       <path id="DejaVuSans-66" d="M 2375 4863 
L 2375 4384 
L 1825 4384 
Q 1516 4384 1395 4259 
Q 1275 4134 1275 3809 
L 1275 3500 
L 2222 3500 
L 2222 3053 
L 1275 3053 
L 1275 0 
L 697 0 
L 697 3053 
L 147 3053 
L 147 3500 
L 697 3500 
L 697 3744 
Q 697 4328 969 4595 
Q 1241 4863 1831 4863 
L 2375 4863 
z
" transform="scale(0.015625)"/>
       <path id="DejaVuSans-73" d="M 2834 3397 
L 2834 2853 
Q 2591 2978 2328 3040 
Q 2066 3103 1784 3103 
Q 1356 3103 1142 2972 
Q 928 2841 928 2578 
Q 928 2378 1081 2264 
Q 1234 2150 1697 2047 
L 1894 2003 
Q 2506 1872 2764 1633 
Q 3022 1394 3022 966 
Q 3022 478 2636 193 
Q 2250 -91 1575 -91 
Q 1294 -91 989 -36 
Q 684 19 347 128 
L 347 722 
Q 666 556 975 473 
Q 1284 391 1588 391 
Q 1994 391 2212 530 
Q 2431 669 2431 922 
Q 2431 1156 2273 1281 
Q 2116 1406 1581 1522 
L 1381 1569 
Q 847 1681 609 1914 
Q 372 2147 372 2553 
Q 372 3047 722 3315 
Q 1072 3584 1716 3584 
Q 2034 3584 2315 3537 
Q 2597 3491 2834 3397 
z
" transform="scale(0.015625)"/>
      </defs>
      <use xlink:href="#DejaVuSans-48"/>
      <use xlink:href="#DejaVuSans-61" x="75.195312"/>
      <use xlink:href="#DejaVuSans-72" x="136.474609"/>
      <use xlink:href="#DejaVuSans-64" x="175.837891"/>
      <use xlink:href="#DejaVuSans-20" x="239.314453"/>
      <use xlink:href="#DejaVuSans-43" x="271.101562"/>
      <use xlink:href="#DejaVuSans-6f" x="340.925781"/>
      <use xlink:href="#DejaVuSans-6e" x="402.107422"/>
      <use xlink:href="#DejaVuSans-66" x="465.486328"/>
      <use xlink:href="#DejaVuSans-6c" x="500.691406"/>
      <use xlink:href="#DejaVuSans-69" x="528.474609"/>
      <use xlink:href="#DejaVuSans-63" x="556.257812"/>
      <use xlink:href="#DejaVuSans-74" x="611.238281"/>
      <use xlink:href="#DejaVuSans-73" x="650.447266"/>
     </g>
    </g>
   </g>
   <g id="line2d_71">
    <path d="M 54.65 50.359829 
L 73.897822 73.854095 
L 90.605828 97.049616 
L 105.366826 118.558848 
L 118.587599 136.994246 
L 130.55942 150.968265 
L 141.498029 159.093361 
L 151.567683 162.886053 
L 160.896339 166.09611 
L 169.585616 168.829581 
L 177.717567 171.157543 
L 185.359395 173.151075 
L 199.386635 176.419161 
L 212.015836 179.202463 
L 217.888163 180.590016 
L 223.500589 182.069607 
L 228.875148 183.712315 
L 238.985779 187.04614 
L 248.349589 190.074949 
L 252.784395 191.746666 
L 257.069358 193.673157 
L 261.214273 195.968173 
L 265.228007 198.685257 
L 269.118607 201.788985 
L 272.893406 205.239062 
L 276.559098 208.995193 
L 280.121812 213.017081 
L 283.587179 217.388719 
L 286.960375 222.714052 
L 290.246177 228.744309 
L 299.621764 247.072597 
L 302.599026 251.994996 
L 308.351745 260.678503 
L 316.519332 272.260983 
L 321.686087 279.66468 
L 326.650577 286.894145 
L 329.061802 290.238776 
L 331.428042 293.287947 
L 333.750943 295.954131 
L 336.032064 298.174518 
L 344.767159 305.66214 
L 346.860066 308.077086 
L 348.918997 311.520144 
L 350.945038 315.922219 
L 354.902537 325.079059 
L 356.835922 328.571647 
L 358.740278 330.498896 
L 362.465297 332.164894 
L 367.855396 334.264561 
L 373.025734 335.951258 
L 377.993531 337.298582 
L 382.774059 338.380133 
L 388.880098 339.535982 
L 402.971012 342.075771 
L 406.910114 343.039271 
L 414.439269 345.18147 
L 421.546404 347.426768 
L 429.364063 350.114094 
L 439.757219 353.938488 
L 455.678568 359.836356 
L 461.694661 361.837509 
L 466.633503 363.269779 
L 470.607197 364.227999 
L 474.460167 364.943362 
L 478.199531 365.388758 
L 481.113619 365.532483 
L 498.579484 365.537212 
L 550.818058 365.537212 
L 550.818058 365.537212 
" clip-path="url(#pe0ad935460)" style="fill: none; stroke: #87ceeb; stroke-width: 2.5; stroke-linecap: square"/>
   </g>
   <g id="line2d_72">
    <path d="M 54.65 99.799418 
L 179.156126 107.423023 
L 240.758299 113.112075 
L 282.043001 117.459385 
L 313.13841 121.070366 
L 338.091435 123.757426 
L 392.507959 128.240347 
L 459.639614 133.535222 
L 475.923239 135.176174 
L 503.305893 138.061775 
L 557.574538 143.530257 
L 565.358249 144.530724 
L 572.691767 145.640317 
L 579.624332 146.901924 
L 586.197524 148.358433 
L 592.446772 150.052731 
L 598.402512 152.027707 
L 604.091083 154.326247 
L 606.842466 155.610256 
L 609.535428 156.991239 
L 612.172398 159.047589 
L 614.755657 163.17034 
L 619.769495 173.817527 
L 622.203995 178.19115 
L 624.592644 180.604005 
L 635.90436 188.676991 
L 646.28931 195.790674 
L 654.025435 200.828146 
L 661.316698 205.315477 
L 668.211491 209.281026 
L 674.750717 212.753155 
L 680.969258 215.760225 
L 686.897102 218.330596 
L 692.560217 220.49263 
L 697.981242 222.274687 
L 703.180028 223.705127 
L 708.174081 224.812313 
L 712.978919 225.620798 
L 717.608357 226.111673 
L 728.4926 227.071192 
L 730.56169 227.426667 
L 731.583713 227.684295 
L 732.597567 228.17864 
L 733.60338 228.907366 
L 734.60128 229.844613 
L 736.573829 232.24124 
L 738.51617 235.161656 
L 741.375021 240.071865 
L 745.089264 246.521323 
L 746.906377 249.238823 
L 748.697823 251.378238 
L 750.464318 253.086418 
L 753.925168 256.309867 
L 755.620812 258.370161 
L 756.460207 259.631674 
L 757.294085 261.21242 
L 758.122515 263.948766 
L 759.763317 270.443484 
L 760.575826 272.506623 
L 761.383163 273.095442 
L 764.562082 274.580348 
L 767.663268 275.739541 
L 770.690433 276.616235 
L 773.647028 277.253642 
L 777.24841 277.779736 
L 781.43928 278.125482 
L 788.780379 278.413206 
L 793.240027 278.703373 
L 796.332138 279.116917 
L 798.75267 279.63634 
L 801.127872 280.370212 
L 803.459409 281.361744 
L 805.180359 282.300479 
L 806.878269 283.426685 
L 808.55375 284.758593 
L 809.107361 287.093963 
L 809.658565 308.596771 
L 810.75384 310.920637 
L 811.839737 312.449208 
L 812.916416 313.380237 
L 813.984032 313.911481 
L 816.614404 314.788282 
L 817.651466 315.477585 
L 818.680117 316.656995 
L 819.191331 317.492288 
L 819.700493 318.654125 
L 820.207619 321.471225 
L 821.215827 328.755304 
L 821.716942 330.65887 
L 822.713271 332.420737 
L 823.701834 333.719766 
L 824.682751 334.652004 
L 825.65614 335.313501 
L 827.102358 336.008209 
L 829.005349 336.883339 
L 829.946243 337.515092 
L 830.880209 338.404367 
L 831.807347 339.647213 
L 832.727757 341.339677 
L 833.185469 342.384532 
L 833.641536 344.888888 
L 834.548778 361.315703 
L 834.999977 365.534373 
L 842.858563 365.537212 
L 842.858563 365.537212 
" clip-path="url(#pe0ad935460)" style="fill: none; stroke: #ff7f50; stroke-width: 2.5; stroke-linecap: square"/>
   </g>
   <g id="line2d_73">
    <path d="M -1 111.655424 
L 3.647698 111.744754 
L 31.949347 112.618698 
L 55.073478 113.652907 
L 74.624652 114.834996 
L 91.56065 116.152579 
L 106.499258 117.593272 
L 119.862299 119.144689 
L 131.95064 120.794444 
L 142.98643 122.531721 
L 153.138373 125.287755 
L 162.537604 129.432038 
L 171.288079 134.33705 
L 179.473602 139.375272 
L 187.162718 143.919186 
L 194.41221 147.343187 
L 201.269641 149.770276 
L 207.775251 151.763859 
L 219.863592 155.320872 
L 225.501479 157.319487 
L 230.899382 159.756451 
L 236.0769 163.001306 
L 241.051325 166.960474 
L 254.901244 179.383997 
L 259.201031 182.46399 
L 263.359816 184.896923 
L 271.289372 188.946188 
L 278.752205 192.726745 
L 282.325162 194.822271 
L 285.800218 197.062977 
L 292.477105 201.75389 
L 298.820006 206.671477 
L 304.860747 211.75254 
L 310.626811 216.933882 
L 316.142097 222.152308 
L 323.989852 229.911233 
L 340.608374 246.58879 
L 344.98231 250.70258 
L 362.988622 266.977517 
L 380.390057 282.821039 
L 388.270329 289.674956 
L 394.239976 294.571008 
L 398.539763 297.868591 
L 401.327383 299.670816 
L 405.397195 301.853552 
L 408.039615 303.278102 
L 410.628104 304.931336 
L 411.902804 305.911523 
L 413.16482 307.030256 
L 414.414403 308.348416 
L 415.651794 310.267161 
L 416.877229 312.788935 
L 418.090938 315.777101 
L 420.484057 322.60605 
L 423.991145 332.931446 
L 425.13895 335.84855 
L 426.27646 338.275578 
L 427.40386 340.075889 
L 428.521326 341.169054 
L 430.727148 342.825341 
L 432.895262 344.193064 
L 435.026935 345.324562 
L 438.158738 346.693377 
L 443.212458 348.535077 
L 446.150773 349.664164 
L 449.022554 351.027199 
L 450.901574 352.153091 
L 452.753163 353.53504 
L 453.668919 354.49001 
L 455.480829 356.932467 
L 459.028797 362.360237 
L 459.900495 363.499603 
L 460.766243 364.438568 
L 461.626121 365.120443 
L 462.480209 365.488543 
L 465.008497 365.537212 
L 550.818058 365.537212 
L 550.818058 365.537212 
" clip-path="url(#pe0ad935460)" style="fill: none; stroke: #008000; stroke-width: 2.5; stroke-linecap: square"/>
   </g>
   <g id="patch_3">
    <path d="M 54.65 375.837127 
L 54.65 29.76 
" style="fill: none; stroke: #000000; stroke-width: 0.8; stroke-linejoin: miter; stroke-linecap: square"/>
   </g>
   <g id="patch_4">
    <path d="M 842.858563 375.837127 
L 842.858563 29.76 
" style="fill: none; stroke: #000000; stroke-width: 0.8; stroke-linejoin: miter; stroke-linecap: square"/>
   </g>
   <g id="patch_5">
    <path d="M 54.65 375.837127 
L 842.858563 375.837127 
" style="fill: none; stroke: #000000; stroke-width: 0.8; stroke-linejoin: miter; stroke-linecap: square"/>
   </g>
   <g id="patch_6">
    <path d="M 54.65 29.76 
L 842.858563 29.76 
" style="fill: none; stroke: #000000; stroke-width: 0.8; stroke-linejoin: miter; stroke-linecap: square"/>
   </g>
   <g id="text_22">
    <!-- Hard Conflicts vs. Iterations -->
    <g transform="translate(337.919282 23.76) scale(0.16 -0.16)">
     <defs>
      <path id="DejaVuSans-76" d="M 191 3500 
L 800 3500 
L 1894 563 
L 2988 3500 
L 3597 3500 
L 2284 0 
L 1503 0 
L 191 3500 
z
" transform="scale(0.015625)"/>
      <path id="DejaVuSans-2e" d="M 684 794 
L 1344 794 
L 1344 0 
L 684 0 
L 684 794 
z
" transform="scale(0.015625)"/>
     </defs>
     <use xlink:href="#DejaVuSans-48"/>
     <use xlink:href="#DejaVuSans-61" x="75.195312"/>
     <use xlink:href="#DejaVuSans-72" x="136.474609"/>
     <use xlink:href="#DejaVuSans-64" x="175.837891"/>
     <use xlink:href="#DejaVuSans-20" x="239.314453"/>
     <use xlink:href="#DejaVuSans-43" x="271.101562"/>
     <use xlink:href="#DejaVuSans-6f" x="340.925781"/>
     <use xlink:href="#DejaVuSans-6e" x="402.107422"/>
     <use xlink:href="#DejaVuSans-66" x="465.486328"/>
     <use xlink:href="#DejaVuSans-6c" x="500.691406"/>
     <use xlink:href="#DejaVuSans-69" x="528.474609"/>
     <use xlink:href="#DejaVuSans-63" x="556.257812"/>
     <use xlink:href="#DejaVuSans-74" x="611.238281"/>
     <use xlink:href="#DejaVuSans-73" x="650.447266"/>
     <use xlink:href="#DejaVuSans-20" x="702.546875"/>
     <use xlink:href="#DejaVuSans-76" x="734.333984"/>
     <use xlink:href="#DejaVuSans-73" x="793.513672"/>
     <use xlink:href="#DejaVuSans-2e" x="845.613281"/>
     <use xlink:href="#DejaVuSans-20" x="877.400391"/>
     <use xlink:href="#DejaVuSans-49" x="909.1875"/>
     <use xlink:href="#DejaVuSans-74" x="938.679688"/>
     <use xlink:href="#DejaVuSans-65" x="977.888672"/>
     <use xlink:href="#DejaVuSans-72" x="1039.412109"/>
     <use xlink:href="#DejaVuSans-61" x="1080.525391"/>
     <use xlink:href="#DejaVuSans-74" x="1141.804688"/>
     <use xlink:href="#DejaVuSans-69" x="1181.013672"/>
     <use xlink:href="#DejaVuSans-6f" x="1208.796875"/>
     <use xlink:href="#DejaVuSans-6e" x="1269.978516"/>
     <use xlink:href="#DejaVuSans-73" x="1333.357422"/>
    </g>
   </g>
   <g id="legend_1">
    <g id="patch_7">
     <path d="M 714.659188 92.20125 
L 834.458563 92.20125 
Q 836.858563 92.20125 836.858563 89.80125 
L 836.858563 38.16 
Q 836.858563 35.76 834.458563 35.76 
L 714.659188 35.76 
Q 712.259188 35.76 712.259188 38.16 
L 712.259188 89.80125 
Q 712.259188 92.20125 714.659188 92.20125 
z
" style="fill: #ffffff; opacity: 0.8; stroke: #cccccc; stroke-linejoin: miter"/>
    </g>
    <g id="line2d_74">
     <path d="M 717.059188 45.478125 
L 729.059188 45.478125 
L 741.059188 45.478125 
" style="fill: none; stroke: #87ceeb; stroke-width: 2.5; stroke-linecap: square"/>
    </g>
    <g id="text_23">
     <!-- GA Scheduler -->
     <g transform="translate(750.659188 49.678125) scale(0.12 -0.12)">
      <defs>
       <path id="DejaVuSans-47" d="M 3809 666 
L 3809 1919 
L 2778 1919 
L 2778 2438 
L 4434 2438 
L 4434 434 
Q 4069 175 3628 42 
Q 3188 -91 2688 -91 
Q 1594 -91 976 548 
Q 359 1188 359 2328 
Q 359 3472 976 4111 
Q 1594 4750 2688 4750 
Q 3144 4750 3555 4637 
Q 3966 4525 4313 4306 
L 4313 3634 
Q 3963 3931 3569 4081 
Q 3175 4231 2741 4231 
Q 1884 4231 1454 3753 
Q 1025 3275 1025 2328 
Q 1025 1384 1454 906 
Q 1884 428 2741 428 
Q 3075 428 3337 486 
Q 3600 544 3809 666 
z
" transform="scale(0.015625)"/>
       <path id="DejaVuSans-41" d="M 2188 4044 
L 1331 1722 
L 3047 1722 
L 2188 4044 
z
M 1831 4666 
L 2547 4666 
L 4325 0 
L 3669 0 
L 3244 1197 
L 1141 1197 
L 716 0 
L 50 0 
L 1831 4666 
z
" transform="scale(0.015625)"/>
       <path id="DejaVuSans-68" d="M 3513 2113 
L 3513 0 
L 2938 0 
L 2938 2094 
Q 2938 2591 2744 2837 
Q 2550 3084 2163 3084 
Q 1697 3084 1428 2787 
Q 1159 2491 1159 1978 
L 1159 0 
L 581 0 
L 581 4863 
L 1159 4863 
L 1159 2956 
Q 1366 3272 1645 3428 
Q 1925 3584 2291 3584 
Q 2894 3584 3203 3211 
Q 3513 2838 3513 2113 
z
" transform="scale(0.015625)"/>
       <path id="DejaVuSans-75" d="M 544 1381 
L 544 3500 
L 1119 3500 
L 1119 1403 
Q 1119 906 1312 657 
Q 1506 409 1894 409 
Q 2359 409 2629 706 
Q 2900 1003 2900 1516 
L 2900 3500 
L 3475 3500 
L 3475 0 
L 2900 0 
L 2900 538 
Q 2691 219 2414 64 
Q 2138 -91 1772 -91 
Q 1169 -91 856 284 
Q 544 659 544 1381 
z
M 1991 3584 
L 1991 3584 
z
" transform="scale(0.015625)"/>
      </defs>
      <use xlink:href="#DejaVuSans-47"/>
      <use xlink:href="#DejaVuSans-41" x="77.490234"/>
      <use xlink:href="#DejaVuSans-20" x="145.898438"/>
      <use xlink:href="#DejaVuSans-53" x="177.685547"/>
      <use xlink:href="#DejaVuSans-63" x="241.162109"/>
      <use xlink:href="#DejaVuSans-68" x="296.142578"/>
      <use xlink:href="#DejaVuSans-65" x="359.521484"/>
      <use xlink:href="#DejaVuSans-64" x="421.044922"/>
      <use xlink:href="#DejaVuSans-75" x="484.521484"/>
      <use xlink:href="#DejaVuSans-6c" x="547.900391"/>
      <use xlink:href="#DejaVuSans-65" x="575.683594"/>
      <use xlink:href="#DejaVuSans-72" x="637.207031"/>
     </g>
    </g>
    <g id="line2d_75">
     <path d="M 717.059188 63.091875 
L 729.059188 63.091875 
L 741.059188 63.091875 
" style="fill: none; stroke: #ff7f50; stroke-width: 2.5; stroke-linecap: square"/>
    </g>
    <g id="text_24">
     <!-- SA Scheduler -->
     <g transform="translate(750.659188 67.291875) scale(0.12 -0.12)">
      <use xlink:href="#DejaVuSans-53"/>
      <use xlink:href="#DejaVuSans-41" x="65.351562"/>
      <use xlink:href="#DejaVuSans-20" x="133.759766"/>
      <use xlink:href="#DejaVuSans-53" x="165.546875"/>
      <use xlink:href="#DejaVuSans-63" x="229.023438"/>
      <use xlink:href="#DejaVuSans-68" x="284.003906"/>
      <use xlink:href="#DejaVuSans-65" x="347.382812"/>
      <use xlink:href="#DejaVuSans-64" x="408.90625"/>
      <use xlink:href="#DejaVuSans-75" x="472.382812"/>
      <use xlink:href="#DejaVuSans-6c" x="535.761719"/>
      <use xlink:href="#DejaVuSans-65" x="563.544922"/>
      <use xlink:href="#DejaVuSans-72" x="625.068359"/>
     </g>
    </g>
    <g id="line2d_76">
     <path d="M 717.059188 80.705625 
L 729.059188 80.705625 
L 741.059188 80.705625 
" style="fill: none; stroke: #008000; stroke-width: 2.5; stroke-linecap: square"/>
    </g>
    <g id="text_25">
     <!-- TS Scheduler -->
     <g transform="translate(750.659188 84.905625) scale(0.12 -0.12)">
      <defs>
       <path id="DejaVuSans-54" d="M -19 4666 
L 3928 4666 
L 3928 4134 
L 2272 4134 
L 2272 0 
L 1638 0 
L 1638 4134 
L -19 4134 
L -19 4666 
z
" transform="scale(0.015625)"/>
      </defs>
      <use xlink:href="#DejaVuSans-54"/>
      <use xlink:href="#DejaVuSans-53" x="61.083984"/>
      <use xlink:href="#DejaVuSans-20" x="124.560547"/>
      <use xlink:href="#DejaVuSans-53" x="156.347656"/>
      <use xlink:href="#DejaVuSans-63" x="219.824219"/>
      <use xlink:href="#DejaVuSans-68" x="274.804688"/>
      <use xlink:href="#DejaVuSans-65" x="338.183594"/>
      <use xlink:href="#DejaVuSans-64" x="399.707031"/>
      <use xlink:href="#DejaVuSans-75" x="463.183594"/>
      <use xlink:href="#DejaVuSans-6c" x="526.5625"/>
      <use xlink:href="#DejaVuSans-65" x="554.345703"/>
      <use xlink:href="#DejaVuSans-72" x="615.869141"/>
     </g>
    </g>
   </g>
  </g>
 </g>
 <defs>
  <clipPath id="pe0ad935460">
   <rect x="54.65" y="29.76" width="788.208563" height="346.077127"/>
  </clipPath>
 </defs>
</svg>
